<?xml version="1.0" encoding="UTF-8"?>
<svg version="1.1" xmlns="http://www.w3.org/2000/svg" width="580" height="580">
<path d="M0 0 C1.06081787 0.00182281 2.12163574 0.00364563 3.21459961 0.00552368 C18.48040835 0.04971357 33.34213694 0.43344831 48.375 3.3125 C49.80779297 3.56990967 49.80779297 3.56990967 51.26953125 3.83251953 C111.14806387 14.6956969 173.95535753 44.66497266 213.66796875 92.30078125 C214.89918363 93.75175531 216.17947099 95.16158121 217.48828125 96.54296875 C266.19632054 147.96143903 290.93728213 219.88901015 290.6875 289.9375 C290.68476578 291.52872681 290.68476578 291.52872681 290.68197632 293.15209961 C290.63778643 308.41790835 290.25405169 323.27963694 287.375 338.3125 C287.20339355 339.26769531 287.03178711 340.22289062 286.85498047 341.20703125 C276.74517202 396.93294592 251.15945791 451.85886462 210.0703125 491.6171875 C208.16178496 493.46885964 208.16178496 493.46885964 205.875 496.375 C203.30138145 499.39900179 200.58561653 501.86251065 197.56640625 504.42578125 C196.12987901 505.66257743 194.71935966 506.93038754 193.33984375 508.23046875 C142.04481199 556.44960795 70.35161474 580.87318864 0.75 580.625 C-0.31081787 580.62317719 -1.37163574 580.62135437 -2.46459961 580.61947632 C-17.73040835 580.57528643 -32.59213694 580.19155169 -47.625 577.3125 C-48.58019531 577.14089355 -49.53539062 576.96928711 -50.51953125 576.79248047 C-107.26897136 566.49698379 -162.32636095 540.2018748 -202.625 498.3125 C-205.17395668 495.74251232 -207.74203497 493.19999217 -210.3515625 490.69140625 C-217.3209153 483.95688122 -223.46079751 476.86827705 -229.27050781 469.11572266 C-230.61163034 467.33029891 -231.97246652 465.56135821 -233.3359375 463.79296875 C-240.94605562 453.80494466 -247.42626437 443.22243908 -253.625 432.3125 C-254.09437988 431.49040039 -254.56375977 430.66830078 -255.04736328 429.82128906 C-279.04290056 387.31010603 -290.11066743 339.25028944 -289.9375 290.6875 C-289.93567719 289.62668213 -289.93385437 288.56586426 -289.93197632 287.47290039 C-289.88778643 272.20709165 -289.50405169 257.34536306 -286.625 242.3125 C-286.45339355 241.35730469 -286.28178711 240.40210938 -286.10498047 239.41796875 C-276.11120257 184.33162192 -250.91086264 129.05460069 -210.09765625 89.78515625 C-208.38834088 88.12635258 -208.38834088 88.12635258 -206.1875 85.3125 C-203.60584979 82.29008024 -200.90450393 79.83016016 -197.8828125 77.265625 C-196.34626376 75.93643059 -194.8415576 74.5697207 -193.3671875 73.171875 C-141.9408596 24.48613511 -70.04207849 -0.24975927 0 0 Z " fill="#000000" transform="translate(289.625,-0.3125)"/>
<path d="M0 0 C6.98265284 0.0072797 13.96530368 0.00866235 20.94795977 0.00979666 C33.39325509 0.01196775 45.83854374 0.01857423 58.28383545 0.02809927 C70.34991585 0.0373243 82.41599441 0.04438 94.48207764 0.04860708 C95.22990581 0.04886981 95.97773399 0.04913253 96.74822363 0.04940322 C100.50107461 0.05070856 104.2539256 0.0519722 108.00677661 0.05321512 C138.9803193 0.06352703 169.95385369 0.0811674 200.92739014 0.10353873 C200.9837007 0.90958139 201.04001127 1.71562405 201.09802822 2.54609225 C201.35618591 6.23094132 201.61625944 9.91565281 201.87636475 13.6003649 C202.0091898 15.50238291 202.0091898 15.50238291 202.14469818 17.44282553 C202.73630191 25.79881372 203.4839234 34.09956045 204.48989014 42.41603873 C205.50835631 51.36845853 206.28000798 60.28866824 206.67739014 69.29103873 C206.72194336 70.27177359 206.76649658 71.25250845 206.8123999 72.26296255 C206.99783937 77.29443207 206.99783937 77.29443207 206.92739014 79.10353873 C205.92739014 80.10353873 205.92739014 80.10353873 203.36489014 80.16603873 C202.56051514 80.14541373 201.75614014 80.12478873 200.92739014 80.10353873 C200.54369263 79.07752554 200.54369263 79.07752554 200.15224365 78.03078482 C190.58768851 52.68865542 179.30459657 30.58276064 153.67739014 18.29103873 C132.39963995 8.73291683 108.97370788 8.96484137 86.05239014 8.79103873 C85.335047 8.78141104 84.61770386 8.77178335 83.87862305 8.76186392 C72.18885932 8.6269859 62.47518394 9.82964182 51.92739014 15.10353873 C51.59739014 59.98353873 51.26739014 104.86353873 50.92739014 151.10353873 C77.70708838 149.70160362 77.70708838 149.70160362 103.67739014 142.85353873 C104.76733276 142.39491446 104.76733276 142.39491446 105.87929443 141.92702505 C110.49387556 139.91759181 114.55769647 137.68296435 118.38442139 134.36525748 C119.92739014 133.10353873 119.92739014 133.10353873 122.00160889 132.18556998 C124.43179485 130.8201308 124.80537658 129.61776501 125.92739014 127.10353873 C127.02068156 125.65775031 128.12602365 124.22103583 129.23989014 122.79103873 C136.39982029 112.60935011 138.47940524 100.54914877 140.34926514 88.49025748 C140.92739014 85.10353873 140.92739014 85.10353873 141.92739014 83.10353873 C143.57739014 83.10353873 145.22739014 83.10353873 146.92739014 83.10353873 C146.95093111 98.59586197 146.96847199 114.08818384 146.97920231 129.58052084 C146.98432083 136.77667618 146.99127687 143.97282029 147.00282959 151.16896841 C147.01291428 157.45377714 147.0192757 163.73857773 147.02147863 170.02339432 C147.02276279 173.33964968 147.02625456 176.65586362 147.03312019 179.97211478 C147.06568656 196.37689567 146.77599168 212.71937998 145.92739014 229.10353873 C143.61739014 229.10353873 141.30739014 229.10353873 138.92739014 229.10353873 C138.82716553 228.43934927 138.72694092 227.77515982 138.6236792 227.09084341 C135.34418929 205.65145703 132.13080463 187.11879823 114.83754639 172.31447623 C100.80690273 162.12462329 81.89896015 159.80497808 65.11489014 158.91603873 C63.72876245 158.83436809 62.34269371 158.75169067 60.95668701 158.66799185 C57.61402812 158.46999463 54.27113795 158.28202148 50.92739014 158.10353873 C51.01182631 172.11770361 51.10727049 186.131758 51.21491722 200.14576456 C51.26460444 206.65486149 51.31093416 213.16394431 51.34926514 219.6731188 C51.38646967 225.96910818 51.4329189 232.26497091 51.48545364 238.56085036 C51.50381268 240.9482494 51.51898672 243.3356754 51.5307341 245.72311613 C50.65295213 280.82947752 50.65295213 280.82947752 65.81020264 311.06838248 C75.94533151 320.46821768 88.39734353 323.23546051 101.92739014 324.10353873 C101.92739014 326.08353873 101.92739014 328.06353873 101.92739014 330.10353873 C84.16112979 331.33185671 66.39782104 331.23571598 48.60050205 331.20493266 C44.30978785 331.19860001 40.01907264 331.19808761 35.72835449 331.19690726 C27.63646541 331.19382274 19.54459014 331.18564895 11.45270709 331.17555777 C2.22630224 331.16430621 -7.00010333 331.15886359 -16.22651335 331.15386233 C-35.17521997 331.14346329 -54.1239138 331.12592076 -73.07260986 331.10353873 C-73.07260986 329.12353873 -73.07260986 327.14353873 -73.07260986 325.10353873 C-71.84026611 324.94498404 -70.60792236 324.78642935 -69.33823486 324.62306998 C-55.62089506 322.74217588 -42.29938629 320.45141318 -33.07260986 309.10353873 C-21.78128408 290.37118599 -22.91602028 271.16491255 -22.75620361 249.98635123 C-22.73559277 247.67465143 -22.71459535 245.36295506 -22.69323059 243.05126211 C-22.63843588 237.0114651 -22.58884147 230.97163653 -22.5403833 224.9317858 C-22.48985416 218.75072746 -22.43433325 212.56971411 -22.37925049 206.38869498 C-22.27219122 194.29368145 -22.17063364 182.19862862 -22.07260986 170.10353873 C-25.42063784 170.23468963 -28.7680966 170.37713905 -32.11557861 170.52150748 C-33.05590942 170.55820547 -33.99624024 170.59490347 -34.96506592 170.63271353 C-51.20725966 171.35152001 -62.55224914 175.43571738 -74.07260986 187.10353873 C-84.75521791 198.90016177 -92.52560368 213.18390252 -100.07260986 227.10353873 C-100.50380127 227.89212271 -100.93499268 228.68070669 -101.37925049 229.49318716 C-114.57964136 253.75055779 -125.53663592 279.15728363 -136.59214111 304.44338248 C-139.09956935 310.17591975 -141.6387701 315.89377768 -144.19760986 321.60353873 C-144.57651367 322.45359488 -144.95541748 323.30365103 -145.34580322 324.17946646 C-147.95483524 329.9857641 -147.95483524 329.9857641 -149.07260986 331.10353873 C-151.59801988 331.19858123 -154.09598112 331.2291103 -156.62168213 331.21706412 C-157.80695999 331.21728316 -157.80695999 331.21728316 -159.01618286 331.21750662 C-161.64048808 331.21680729 -164.26472322 331.209014 -166.88901611 331.20119498 C-168.70362652 331.19933087 -170.51823742 331.19790693 -172.33284851 331.19690726 C-177.11851216 331.19308152 -181.90414566 331.18325076 -186.68979736 331.17220328 C-191.56935051 331.16199035 -196.4489085 331.15740989 -201.32846924 331.15236685 C-210.90986272 331.14162854 -220.49123379 331.12455146 -230.07260986 331.10353873 C-230.07260986 329.12353873 -230.07260986 327.14353873 -230.07260986 325.10353873 C-229.02202393 324.89599966 -227.97143799 324.6884606 -226.88901611 324.47463248 C-212.98039885 321.52050185 -205.65087281 316.12364816 -197.70932861 304.23244498 C-179.97006016 276.80760201 -166.13210307 246.59283142 -151.97300049 217.22365591 C-131.91519591 175.68270706 -131.91519591 175.68270706 -111.07260986 166.10353873 C-110.41260986 166.10353873 -109.75260986 166.10353873 -109.07260986 166.10353873 C-109.07260986 165.44353873 -109.07260986 164.78353873 -109.07260986 164.10353873 C-109.75323486 164.0287731 -110.43385986 163.95400748 -111.13510986 163.87697623 C-128.71594832 161.49234122 -144.77227832 153.75800984 -158.07260986 142.10353873 C-158.76096924 141.51056998 -159.44932861 140.91760123 -160.15854736 140.30666373 C-173.98635545 127.51730763 -181.5452165 109.10921192 -182.29135986 90.46681998 C-182.87965826 67.19115057 -176.51231576 46.64204977 -160.44760986 29.32228873 C-119.41871043 -9.00734101 -51.43150342 -0.05508102 0 0 Z " fill="#FCFCFC" transform="translate(299.0726098641753,126.89646127447486)"/>
<path d="M0 0 C8.67672451 -0.53649458 12.0380771 0.62353162 20.84423828 4.14599609 C20.84423828 53.97599609 20.84423828 103.80599609 20.84423828 155.14599609 C-37.72399978 155.14599609 -37.72399978 155.14599609 -58.26123047 135.19677734 C-73.49499715 119.64092243 -80.17846656 99.27228234 -80.34326172 77.89599609 C-80.29795141 75.6455843 -80.23667586 73.39540916 -80.15576172 71.14599609 C-80.13771484 70.23591797 -80.11966797 69.32583984 -80.10107422 68.38818359 C-79.09077177 48.47928242 -69.13529516 30.7665385 -55.15576172 17.14599609 C-54.54990234 16.53111328 -53.94404297 15.91623047 -53.31982422 15.28271484 C-42.68791734 5.24723201 -27.89247591 1.99108963 -13.78076172 0.95849609 C-12.27412964 0.84223877 -12.27412964 0.84223877 -10.73706055 0.72363281 C-7.15929804 0.46066828 -3.57913451 0.24239212 0 0 Z " fill="#000000" transform="translate(256.15576171875,135.85400390625)"/>
</svg>
