<?xml version="1.0" encoding="UTF-8"?>
<svg id="Camada_1" data-name="Camada 1" xmlns="http://www.w3.org/2000/svg" xmlns:xlink="http://www.w3.org/1999/xlink" viewBox="0 0 1024 1024">
  <defs>
    <style>
      .cls-1 {
        fill: #edeeef;
      }

      .cls-2 {
        fill: none;
      }

      .cls-3 {
        fill: #d70027;
      }

      .cls-4 {
        fill: #efeeee;
      }

      .cls-5 {
        fill: #0152b3;
      }

      .cls-6 {
        fill: #efefef;
      }

      .cls-7 {
        fill: #d70128;
      }

      .cls-8 {
        fill: #ecedee;
      }

      .cls-9 {
        clip-path: url(#clippath);
      }

      .cls-10 {
        fill: #fdd216;
      }
    </style>
    <clipPath id="clippath">
      <circle class="cls-2" cx="1556" cy="512" r="500"/>
    </clipPath>
  </defs>
  <g>
    <path class="cls-5" d="M512.01,12v499.85H12.16c.36-9.06-.49-18.29,0-27.34.6-11.08,2.48-23.84,3.91-35.15,4.71-1.94,22.66-17.95,25.82-17.63l41.54,29.34-15.69-49.15,42.05-30.9h-52.72l-13.67-41.98c4.89-13.29,9.62-26.2,15.62-39.05,9.36,2.59,15.52,11.64,24.39,15.14l-12.67-37.6c3.73-6.93,8.88-19.61,14.64-24.41,7.02-5.85,17.33-10.8,24.4-17.09l-13.66-.48c27.08-40.88,58.28-76.1,95.68-107.39l-12.69,41,42.43-28.34,40.54,28.34-14.51-48.12,40.88-30.94h-43.93C314.54,44.18,397.46,18.02,481.34,13.02l2.36-1.02h28.31ZM468.08,90.1h-51.25l-16.12-48.81-16.59,48.81h-51.74l40.87,30.94-14.02,48.15,40.05-28.35,42.43,28.34-15.67-48.23,42.03-30.84ZM236.7,235.57l-16.11-48.82-16.11,48.82h-51.74l40.88,30.95-14.51,49.1,41.48-29.25,42,29.23-15.04-49.11,40.9-30.92h-51.74ZM468.08,235.57h-51.25l-16.12-48.81-16.59,48.81h-51.74l40.91,30.91-15.03,49.16,41.98-29.26,41.48,29.25-15.54-49.67,41.91-30.38ZM236.7,381.03l-16.11-48.82-16.6,48.82h-51.25l40.87,30.95-14.51,49.1,41.48-29.25,41.49,28.27-14.54-48.15,40.9-30.92h-51.74ZM468.08,381.03h-51.25l-16.12-48.81-16.59,48.81h-51.74l40.91,30.91-15.05,49.13,42-29.23,41.48,29.25c1.6-2.02-16.05-43.89-14.49-49.1,1.09-3.63,36.61-25.04,40.86-30.95Z"/>
    <path class="cls-4" d="M512.01,511.85h499.86v38.07c-2.96-.54-1.87,1.49-1.96,3.37-1.4,30.2-7.84,60.33-15.62,89.38H29.73c-7.74-28.8-13.97-58.48-15.62-88.4-.1-1.87,1.03-3.92-1.95-3.37v-39.05h499.86Z"/>
    <path class="cls-7" d="M994.3,381.03c9.11,33.94,15.86,70.44,17.57,105.44.41,8.41-.3,16.96,0,25.38h-499.86v-130.82h482.28Z"/>
    <path class="cls-3" d="M822.47,903.34c-80.38,63.71-181.09,103.13-284.1,108.37-18.27.93-37.3-.69-55.65,0l-2.37-1.01c-103.49-6.99-197.93-43.2-278.8-107.36h620.92Z"/>
    <path class="cls-6" d="M551.06,12c-.54,3,1.5,1.84,3.37,1.95,87.68,5.46,180.25,41.46,250.77,92.92,5.06,3.69,12.51,8.12,15.31,13.49h-308.51V12h39.05Z"/>
    <path class="cls-6" d="M937.67,251.19c26.02,42.44,43.6,81.36,56.62,129.84h-482.28v-129.84h425.66Z"/>
    <path class="cls-7" d="M820.52,120.37l2.19.24c46.81,35.63,84.39,80.73,114.96,130.58h-425.66V120.37h308.51Z"/>
    <polygon class="cls-8" points="236.7 381.03 288.44 381.03 247.54 411.95 262.08 460.1 220.58 431.84 179.11 461.09 193.62 411.99 152.74 381.03 203.99 381.03 220.59 332.21 236.7 381.03"/>
    <polygon class="cls-8" points="468.08 235.57 426.17 265.95 441.71 315.62 400.23 286.37 358.26 315.63 373.28 266.47 332.38 235.57 384.12 235.57 400.71 186.75 416.82 235.57 468.08 235.57"/>
    <polygon class="cls-1" points="468.08 90.1 426.05 120.94 441.72 169.17 399.29 140.84 359.23 169.19 373.25 121.04 332.38 90.1 384.12 90.1 400.71 41.29 416.82 90.1 468.08 90.1"/>
    <path class="cls-1" d="M43.4,339.05l13.67,41.98h52.72l-42.05,30.9,15.69,49.15-41.54-29.34c-3.16-.32-21.11,15.69-25.82,17.63,4.95-39.15,13.78-73.47,27.34-110.32Z"/>
    <path class="cls-1" d="M244.51,90.1h43.93s-40.88,30.95-40.88,30.95l14.51,48.12-40.54-28.34-42.43,28.34,12.69-41c16.59-13.88,33.91-27.28,52.72-38.07Z"/>
    <path class="cls-8" d="M96.12,235.57l13.66.48c-7.08,6.29-17.38,11.24-24.4,17.09,1.25-6.83,7.17-12.19,10.74-17.57Z"/>
    <path class="cls-8" d="M59.02,300c3.58-7.66,7.71-15.02,11.72-22.45l12.67,37.6c-8.87-3.51-15.02-12.56-24.39-15.14Z"/>
    <polygon class="cls-8" points="236.7 235.57 288.44 235.57 247.54 266.49 262.58 315.6 220.59 286.37 179.11 315.62 193.62 266.52 152.74 235.57 204.48 235.57 220.59 186.74 236.7 235.57"/>
    <path class="cls-8" d="M468.08,381.03c-4.25,5.92-39.77,27.32-40.86,30.95-1.56,5.21,16.09,47.08,14.49,49.1l-41.48-29.25-42,29.23,15.05-49.13-40.91-30.91h51.74l16.59-48.81,16.12,48.81h51.25Z"/>
    <path class="cls-3" d="M994.3,642.67c-12.97,48.44-30.63,87.44-56.62,129.84H86.35c-26.03-42.45-43.6-81.36-56.62-129.84h964.57Z"/>
    <path class="cls-4" d="M937.67,772.52c-31.83,51.92-67.36,92.9-115.2,130.82H201.55c-47.68-37.83-83.51-79.12-115.2-130.82h851.32Z"/>
  </g>
  <g class="cls-9">
    <path class="cls-10" d="M1532.4,906.67l-582.67-367.85c-14.32-14.32-14.32-37.76,0-52.08L1527.68,117.46c14.32-14.32,37.76-14.32,52.08,0l582.67,373.99c14.32,14.32,14.32,37.76,0,52.08l-577.95,363.13c-14.32,14.32-37.76,14.32-52.08,0Z"/>
  </g>
</svg>